<svg version="1.1" id="Layer_1" xmlns="http://www.w3.org/2000/svg" xmlns:xlink="http://www.w3.org/1999/xlink" x="0px" y="0px"
	 width="100%" viewBox="0 0 1024 1024" enable-background="new 0 0 1024 1024" xml:space="preserve">
<path fill="#000000" opacity="1.000000" stroke="none" 
	d="
M641.362305,517.459961 
	C621.031006,522.906067 601.077942,528.195679 581.176086,533.671326 
	C578.343811,534.450562 576.432983,533.841064 574.482605,531.887390 
	C546.697266,504.055023 518.889587,476.244781 491.056000,448.460632 
	C489.081390,446.489532 488.608673,444.568420 489.366516,441.756561 
	C499.583954,403.845490 509.681976,365.902161 519.749084,327.950775 
	C520.520508,325.042511 522.103455,323.549561 525.037292,322.771637 
	C562.839600,312.748199 600.627808,302.670898 638.375671,292.445038 
	C641.595276,291.572815 643.666626,292.205841 645.902283,294.451599 
	C673.177429,321.850220 700.472839,349.229034 727.889526,376.485809 
	C730.750732,379.330322 731.357910,381.861298 730.300476,385.741791 
	C720.151306,422.986725 710.166748,460.276794 700.262573,497.587799 
	C699.372070,500.942505 697.646423,502.529602 694.363770,503.381989 
	C676.802124,507.942017 659.287720,512.683960 641.362305,517.459961 
z"/>
<path fill="#000000" opacity="1.000000" stroke="none" 
	d="
M343.714783,252.624176 
	C369.650146,245.658966 395.193329,238.801651 420.709381,231.844711 
	C423.718475,231.024292 425.677673,232.021439 427.747192,234.097305 
	C455.381775,261.815948 483.056366,289.494873 510.804626,317.099640 
	C513.028809,319.312347 513.242371,321.312836 512.460205,324.204132 
	C503.255646,358.228119 493.641998,392.157166 485.375732,426.410370 
	C482.606934,437.883423 477.747223,443.174133 465.979645,445.967194 
	C431.999817,454.032440 398.404388,463.723480 364.692566,472.902893 
	C360.958221,473.919708 358.374176,473.528107 355.463531,470.588348 
	C328.628967,443.485321 301.663177,416.511414 274.589111,389.647461 
	C271.360168,386.443573 270.502655,383.623718 271.736328,379.128510 
	C281.858093,342.246155 291.764038,305.303955 301.531311,268.325958 
	C302.482605,264.724487 304.166168,263.036652 307.623260,262.157257 
	C319.550323,259.123322 331.421814,255.871201 343.714783,252.624176 
M340.981567,270.632538 
	C334.231140,272.448944 327.525269,274.463196 320.711121,275.996521 
	C317.412537,276.738770 316.101257,278.490143 315.288177,281.560852 
	C309.835358,302.154907 304.131470,322.682739 298.725891,343.288940 
	C296.701721,351.005096 294.009583,358.582031 293.101471,366.561523 
	C292.548340,371.422241 294.240051,375.115967 299.290344,376.542938 
	C302.785919,377.530579 305.527100,379.609161 308.047516,382.099365 
	C326.420868,400.252502 344.881409,418.318604 363.110474,436.615448 
	C366.572876,440.090729 369.667847,441.161652 374.555023,439.800232 
	C400.053101,432.697388 425.630127,425.871704 451.245514,419.202362 
	C455.519531,418.089539 457.608215,416.027527 458.730438,411.801666 
	C462.875061,396.194641 467.341827,380.672943 471.727081,365.130341 
	C472.355011,362.904694 472.807404,360.276276 475.373505,359.504578 
	C485.545166,356.445679 489.577423,348.828552 491.115662,339.117340 
	C491.555908,336.337860 492.484314,333.625854 493.308655,330.919373 
	C494.611877,326.640686 493.480865,323.304382 490.275696,320.122833 
	C467.921661,297.933563 445.648560,275.662201 423.459106,253.308350 
	C420.788940,250.618378 418.325958,249.865341 414.603943,250.883789 
	C390.359558,257.517761 366.055023,263.931732 340.981567,270.632538 
z"/>
<path fill="#000000" opacity="1.000000" stroke="none" 
	d="
M558.741211,619.903870 
	C565.129395,596.052368 571.507812,572.620239 577.686218,549.135559 
	C578.615906,545.601929 580.428955,543.925781 583.886719,543.008545 
	C621.199036,533.110779 658.488831,523.127197 695.749390,513.036621 
	C699.230530,512.093872 701.548401,512.702087 704.118347,515.288391 
	C731.239441,542.581665 758.443481,569.793091 785.752319,596.898438 
	C788.595459,599.720337 789.316528,602.254150 788.262146,606.119629 
	C779.290100,639.012146 770.502747,671.955139 761.672424,704.886292 
	C760.466736,709.382874 759.284363,713.886719 758.175171,718.407898 
	C757.477539,721.251587 755.966431,722.871521 752.959412,723.671265 
	C715.014160,733.762329 677.098694,743.965637 639.186707,754.181030 
	C636.488342,754.908142 634.527893,754.317627 632.509399,752.288635 
	C604.785095,724.420959 577.005249,696.608337 549.167175,668.854248 
	C546.974243,666.667969 546.610474,664.622620 547.425903,661.712463 
	C551.284485,647.941711 554.939026,634.113770 558.741211,619.903870 
M570.432983,639.892151 
	C569.723999,643.651001 568.878906,647.390381 568.335938,651.173035 
	C567.376892,657.855347 570.898254,661.300415 577.425903,659.987549 
	C579.510620,659.568298 580.984497,660.123230 582.406738,661.420044 
	C584.988403,663.774048 587.655029,666.042786 590.131165,668.503174 
	C606.906128,685.171692 623.656921,701.864563 640.368286,718.596863 
	C642.604980,720.836365 644.655579,722.275757 648.215881,721.302795 
	C675.014160,713.979614 701.858459,706.823547 728.711304,699.701965 
	C731.755005,698.894775 733.448486,697.450562 734.268311,694.229370 
	C737.263306,682.461487 740.496765,670.752075 743.810852,659.068970 
	C744.953674,655.039978 745.761841,650.803833 748.416565,647.142700 
	C752.026367,652.678040 755.323547,652.674683 758.861145,647.251404 
	C759.930481,645.612061 760.632324,643.658936 761.163574,641.754944 
	C764.114502,631.179382 766.837524,620.538513 769.918213,610.001770 
	C770.850159,606.814453 770.130493,604.724182 767.876404,602.481445 
	C744.737366,579.459106 721.646790,556.387634 698.626892,533.246216 
	C696.472656,531.080627 694.483398,530.581055 691.558167,531.371033 
	C660.076965,539.873291 628.574158,548.296570 597.045410,556.620544 
	C593.751099,557.490234 592.096375,559.107971 591.215149,562.446838 
	C584.465332,588.022156 577.534058,613.549561 570.432983,639.892151 
z"/>
<path fill="#000000" opacity="1.000000" stroke="none" 
	d="
M541.642273,510.359863 
	C550.682434,519.478088 559.422363,528.406250 568.290710,537.205078 
	C570.505615,539.402710 571.356750,541.393127 570.468567,544.668762 
	C560.238525,582.399170 550.164429,620.171936 540.123901,657.953369 
	C539.356567,660.840698 537.921509,662.455505 534.966187,663.239746 
	C496.840820,673.356079 458.727234,683.517822 420.651520,693.818970 
	C417.075653,694.786438 415.391388,692.770203 413.411163,690.792786 
	C394.781311,672.189514 376.162689,653.574890 357.542755,634.961670 
	C348.939880,626.361877 340.391144,617.707031 331.708038,609.189087 
	C329.338287,606.864441 328.522430,604.724487 329.458710,601.265747 
	C339.673584,563.530090 349.708923,525.745728 359.725403,487.956604 
	C360.500458,485.032654 362.099335,483.542267 365.011871,482.770813 
	C402.983643,472.713226 440.946106,462.619507 478.863373,452.359009 
	C482.122925,451.476990 483.829559,452.803162 485.786621,454.755280 
	C504.304993,473.226807 522.851318,491.670288 541.642273,510.359863 
M438.360352,671.756958 
	C464.223328,664.741089 490.071045,657.667908 515.964417,650.766113 
	C520.266602,649.619263 522.833557,647.422729 524.030334,643.050720 
	C525.571350,637.420898 527.483887,631.920288 526.923096,625.941040 
	C526.366333,620.006409 528.058777,614.825684 531.983337,610.240967 
	C534.125488,607.738464 536.453308,605.236450 537.379395,601.910461 
	C542.146851,584.787964 546.832886,567.642395 551.703003,550.549194 
	C552.798401,546.704712 551.783203,544.120728 548.973450,541.336670 
	C527.195496,519.757690 505.419769,498.171265 484.018890,476.221008 
	C479.178528,471.256348 474.880157,470.261322 468.285736,472.115662 
	C439.465607,480.219849 410.523315,487.900757 381.537048,495.393555 
	C375.817322,496.872101 373.586243,500.102051 372.243896,505.430481 
	C368.022461,522.187195 363.373077,538.835815 358.916443,555.533447 
	C355.400513,568.706604 351.953491,581.898254 348.412048,595.064453 
	C347.430725,598.712891 347.841400,601.598511 350.911560,604.371277 
	C355.972717,608.942200 360.551575,614.043152 365.411804,618.841553 
	C371.336273,624.690674 376.935211,630.965149 383.403595,636.145874 
	C394.032867,644.659180 406.097626,651.820679 413.036499,663.893738 
	C419.168915,674.563538 427.001068,676.528687 438.360352,671.756958 
z"/>
<path fill="#000000" opacity="1.000000" stroke="none" 
	d="
M392.501160,681.498962 
	C397.814484,686.819946 402.768402,692.007263 407.985992,696.914246 
	C410.599152,699.371887 411.258606,701.670288 410.286255,705.259094 
	C400.104401,742.838379 390.100128,780.465881 380.122742,818.100159 
	C379.345825,821.030640 377.790527,822.513123 374.861420,823.290649 
	C337.220490,833.281555 299.590027,843.313293 262.007050,853.519287 
	C258.394806,854.500244 256.131592,853.693481 253.631577,851.182495 
	C226.469574,823.901367 199.250916,796.676453 171.954910,769.529480 
	C169.288040,766.877136 168.511566,764.465210 169.532257,760.705933 
	C179.690430,723.292664 189.689087,685.835876 199.605713,648.357727 
	C200.501251,644.973267 202.311844,643.515442 205.572159,642.652893 
	C243.061081,632.734192 280.532227,622.746765 317.955536,612.584106 
	C321.398193,611.649292 323.503845,612.396606 325.856140,614.762085 
	C347.941132,636.970825 370.107635,659.098450 392.501160,681.498962 
M382.483459,695.016541 
	C362.228149,674.755493 341.905792,654.560669 321.788361,634.163635 
	C318.700195,631.032532 315.886047,630.130066 311.692078,631.366882 
	C301.967255,634.234802 292.127197,636.712158 282.332947,639.344543 
	C261.455139,644.955933 240.585114,650.596497 219.690277,656.143616 
	C216.360428,657.027649 214.257004,658.575684 213.341019,662.180664 
	C210.109818,674.897156 206.580368,687.537781 203.173019,700.209595 
	C198.255432,718.497925 193.375687,736.796509 188.407196,755.070984 
	C187.416428,758.715149 187.886383,761.446777 190.812469,764.353516 
	C213.025436,786.419067 235.115005,808.610779 257.044983,830.957520 
	C260.797241,834.781006 264.274109,835.540833 269.395569,834.132324 
	C299.399292,825.880981 329.470886,817.871460 359.586487,810.037537 
	C364.113770,808.859802 366.002899,806.558350 367.151398,802.189209 
	C374.375854,774.705627 381.843170,747.285583 389.309082,719.866028 
	C393.149811,705.760437 393.223450,705.780457 382.483459,695.016541 
z"/>
<path fill="#000000" opacity="1.000000" stroke="none" 
	d="
M828.546265,365.863098 
	C831.682739,360.536163 836.068420,357.750763 841.858704,358.122345 
	C847.359985,358.475342 851.550903,361.269623 853.895020,366.471283 
	C856.321899,371.856659 854.960022,378.262329 850.484924,382.365814 
	C846.013367,386.465973 839.160095,387.143616 833.872192,384.008392 
	C828.881958,381.049683 826.139465,374.673187 827.470703,369.043549 
	C827.698059,368.081909 828.073853,367.155365 828.546265,365.863098 
z"/>
<path fill="#000000" opacity="1.000000" stroke="none" 
	d="
M675.241882,175.228867 
	C677.469299,181.844788 675.785706,187.142242 670.977600,191.341782 
	C666.826477,194.967545 660.480774,195.306107 655.537109,192.540375 
	C649.893921,189.383270 648.116821,184.340195 648.697021,178.199417 
	C649.181824,173.067612 652.893372,168.457306 658.088623,167.055969 
	C663.657166,165.553925 668.657104,166.840454 672.668396,171.103638 
	C673.673523,172.171890 674.302734,173.593933 675.241882,175.228867 
z"/>
</svg>