<svg version="1.1" id="Layer_1" xmlns="http://www.w3.org/2000/svg" xmlns:xlink="http://www.w3.org/1999/xlink" x="0px" y="0px"
	 width="100%" viewBox="0 0 337 340" enable-background="new 0 0 337 340" xml:space="preserve">
<path fill="#7B9C52" opacity="1.000000" stroke="none" 
	d="
M250.000000,341.000000 
	C248.933334,341.000000 247.866653,341.000000 246.267365,340.679718 
	C221.655670,326.475281 197.551331,312.634460 173.533432,298.645233 
	C170.901459,297.112274 168.958466,297.006561 166.294220,298.560791 
	C141.908859,312.786133 117.442619,326.872833 93.000000,341.000000 
	C91.611107,341.000000 90.222221,341.000000 88.283920,340.679749 
	C61.354000,325.139557 34.908211,310.030151 8.683982,294.545471 
	C5.742064,292.808380 4.054972,288.946136 1.861800,285.601654 
	C1.911562,254.073318 1.885496,223.012711 1.949742,191.606598 
	C3.569355,189.177170 4.654174,186.344833 6.699639,185.130081 
	C20.632109,176.855957 34.766773,168.922302 48.889473,161.352280 
	C48.907658,169.257767 48.872543,176.689728 48.526443,184.232513 
	C40.580360,188.762161 32.983421,193.249146 25.286356,197.557236 
	C23.048018,198.810028 21.914913,200.122864 21.929720,202.930527 
	C22.057137,227.090530 21.934841,251.252075 22.138985,275.411011 
	C22.154432,277.238983 23.649431,279.825165 25.225407,280.752594 
	C46.022789,292.991669 66.929688,305.046417 87.919952,316.952057 
	C89.400734,317.791931 92.169060,317.837555 93.633774,317.007965 
	C114.633163,305.113953 135.546478,293.065704 156.349030,280.831024 
	C157.939728,279.895477 159.372818,277.315125 159.456314,275.436066 
	C159.788818,267.954224 159.557388,260.447327 159.739716,252.714859 
	C166.590714,248.629639 173.236771,244.779266 179.931290,241.399841 
	C179.987305,253.034866 179.879700,264.201447 180.121078,275.360474 
	C180.159241,277.124146 181.308228,279.645386 182.728821,280.480164 
	C203.823135,292.875641 225.029800,305.080994 246.295700,317.180511 
	C247.564102,317.902130 249.925110,317.994476 251.159592,317.292542 
	C272.574097,305.116638 293.917633,292.814484 315.168793,280.355896 
	C316.508331,279.570587 317.706207,277.279480 317.716705,275.680695 
	C317.876678,251.354050 317.878723,227.025681 317.708649,202.699173 
	C317.697601,201.119308 316.380371,198.882233 315.009460,198.078018 
	C293.905212,185.697403 272.707306,173.475693 251.459442,161.342636 
	C250.285431,160.672256 248.135895,160.482605 247.031189,161.109787 
	C236.781448,166.928879 226.661484,172.976593 216.122116,179.019836 
	C202.742523,186.487595 189.677902,193.779831 176.781052,201.357620 
	C171.910858,204.219238 167.597122,204.106522 162.775620,201.297791 
	C137.922974,186.820129 113.025925,172.417084 88.037430,158.175629 
	C82.977211,155.291702 80.729492,151.547760 80.797363,145.704010 
	C80.957596,131.907486 80.709984,118.106209 80.705383,103.888336 
	C80.798500,89.161446 81.093925,74.845505 80.706886,60.548035 
	C80.521515,53.700417 82.957573,49.514038 88.924690,46.126270 
	C115.064262,31.285799 140.994080,16.075891 167.000000,1.000000 
	C168.388885,1.000000 169.777786,1.000000 171.770721,1.301629 
	C173.880569,2.280352 175.458282,2.832689 176.881485,3.653080 
	C201.822266,18.029860 226.686951,32.540112 251.716080,46.761028 
	C257.029449,49.779957 259.110046,53.716843 259.072845,59.687546 
	C258.910919,85.674683 259.077606,111.663857 258.915558,137.650986 
	C258.893707,141.147598 260.080200,142.950684 263.034973,144.635574 
	C285.296051,157.329514 307.513123,170.103867 329.587006,183.119308 
	C332.817200,185.023941 335.216339,188.338058 338.000000,191.000000 
	C338.000000,223.020889 338.000000,255.041794 337.712738,287.709167 
	C335.226044,290.524872 333.329163,293.180725 330.770294,294.771942 
	C323.152069,299.509369 315.291901,303.860474 307.493317,308.304657 
	C288.338684,319.220367 269.165649,330.103668 250.000000,341.000000 
M101.056458,93.061127 
	C101.040161,108.053864 100.903358,123.048576 101.149101,138.037018 
	C101.182533,140.075577 102.599129,142.979858 104.270973,143.968185 
	C125.057587,156.256668 145.985443,168.307877 166.974686,180.248322 
	C168.393280,181.055328 171.011993,181.214676 172.370239,180.441498 
	C187.269775,171.959808 202.029648,163.232758 217.489868,154.199799 
	C223.545166,150.743057 229.719055,147.470886 235.577179,143.707245 
	C237.154526,142.693863 238.678116,140.195053 238.693848,138.364914 
	C238.900024,114.400391 238.899185,90.432915 238.695999,66.468353 
	C238.680374,64.625725 237.214905,62.010853 235.640854,61.084610 
	C214.722000,48.774883 193.686569,36.661888 172.585464,24.666473 
	C171.210648,23.884924 168.663635,23.756817 167.336044,24.511187 
	C146.088562,36.584526 124.926407,48.809319 103.845009,61.170502 
	C102.480690,61.970478 101.165901,64.141563 101.128922,65.705597 
	C100.920601,74.517097 101.110535,83.338013 101.056458,93.061127 
z"/>
<path fill="#FFFFFF" opacity="1.000000" stroke="none" 
	d="
M338.000000,190.531342 
	C335.216339,188.338058 332.817200,185.023941 329.587006,183.119308 
	C307.513123,170.103867 285.296051,157.329514 263.034973,144.635574 
	C260.080200,142.950684 258.893707,141.147598 258.915558,137.650986 
	C259.077606,111.663857 258.910919,85.674683 259.072845,59.687546 
	C259.110046,53.716843 257.029449,49.779957 251.716080,46.761028 
	C226.686951,32.540112 201.822266,18.029860 176.881485,3.653080 
	C175.458282,2.832689 173.880569,2.280352 172.187378,1.301629 
	C227.265274,1.000000 282.530548,1.000000 338.000000,1.000000 
	C338.000000,64.020744 338.000000,127.041718 338.000000,190.531342 
z"/>
<path fill="#FFFFFF" opacity="1.000000" stroke="none" 
	d="
M48.836174,160.878754 
	C34.766773,168.922302 20.632109,176.855957 6.699639,185.130081 
	C4.654174,186.344833 3.569355,189.177170 1.733896,191.600830 
	C1.427740,191.940598 1.000000,192.000000 1.000000,192.000000 
	C1.000000,128.411423 1.000000,64.822845 1.000000,1.000000 
	C56.020672,1.000000 111.041679,1.000000 166.531342,1.000000 
	C140.994080,16.075891 115.064262,31.285799 88.924690,46.126270 
	C82.957573,49.514038 80.521515,53.700417 80.706886,60.548035 
	C81.093925,74.845505 80.798500,89.161446 80.391495,104.069489 
	C71.831993,109.390762 63.717628,114.207863 55.475838,118.796074 
	C50.940708,121.320778 48.883972,124.867233 48.947968,130.083710 
	C49.073875,140.346710 48.891193,150.613525 48.836174,160.878754 
z"/>
<path fill="#FEFFFE" opacity="1.000000" stroke="none" 
	d="
M93.468658,341.000000 
	C117.442619,326.872833 141.908859,312.786133 166.294220,298.560791 
	C168.958466,297.006561 170.901459,297.112274 173.533432,298.645233 
	C197.551331,312.634460 221.655670,326.475281 245.867371,340.679718 
	C195.312439,341.000000 144.624878,341.000000 93.468658,341.000000 
z"/>
<path fill="#FEFFFE" opacity="1.000000" stroke="none" 
	d="
M1.785978,286.069397 
	C4.054972,288.946136 5.742064,292.808380 8.683982,294.545471 
	C34.908211,310.030151 61.354000,325.139557 87.867256,340.679749 
	C59.089622,341.000000 30.179245,341.000000 1.000000,341.000000 
	C1.000000,322.980011 1.000000,304.958649 1.192032,286.536560 
	C1.384064,286.135803 1.785982,286.069397 1.785978,286.069397 
z"/>
<path fill="#FEFFFE" opacity="1.000000" stroke="none" 
	d="
M250.468658,341.000000 
	C269.165649,330.103668 288.338684,319.220367 307.493317,308.304657 
	C315.291901,303.860474 323.152069,299.509369 330.770294,294.771942 
	C333.329163,293.180725 335.226044,290.524872 337.712738,288.177795 
	C338.000000,305.611664 338.000000,323.223358 338.000000,341.000000 
	C308.979309,341.000000 279.958313,341.000000 250.468658,341.000000 
z"/>
<path fill="#DEE6D3" opacity="1.000000" stroke="none" 
	d="
M1.861804,285.601654 
	C1.785982,286.069397 1.384064,286.135803 1.192032,286.067902 
	C1.000000,254.979111 1.000000,223.958206 1.000000,192.468658 
	C1.000000,192.000000 1.427740,191.940598 1.643585,191.946350 
	C1.885496,223.012711 1.911562,254.073318 1.861804,285.601654 
z"/>
<path fill="#FFFFFE" opacity="1.000000" stroke="none" 
	d="
M216.503845,178.957932 
	C226.661484,172.976593 236.781448,166.928879 247.031189,161.109787 
	C248.135895,160.482605 250.285431,160.672256 251.459442,161.342636 
	C272.707306,173.475693 293.905212,185.697403 315.009460,198.078018 
	C316.380371,198.882233 317.697601,201.119308 317.708649,202.699173 
	C317.878723,227.025681 317.876678,251.354050 317.716705,275.680695 
	C317.706207,277.279480 316.508331,279.570587 315.168793,280.355896 
	C293.917633,292.814484 272.574097,305.116638 251.159592,317.292542 
	C249.925110,317.994476 247.564102,317.902130 246.295700,317.180511 
	C225.029800,305.080994 203.823135,292.875641 182.728821,280.480164 
	C181.308228,279.645386 180.159241,277.124146 180.121078,275.360474 
	C179.879700,264.201447 179.987305,253.034866 180.147339,241.136658 
	C189.630875,234.976868 198.788681,229.250793 208.319641,224.233536 
	C214.441559,221.010834 216.786346,216.589996 216.560806,209.827438 
	C216.217987,199.548416 216.491898,189.248795 216.503845,178.957932 
z"/>
<path fill="#F5C159" opacity="1.000000" stroke="none" 
	d="
M216.122131,179.019836 
	C216.491898,189.248795 216.217987,199.548416 216.560806,209.827438 
	C216.786346,216.589996 214.441559,221.010834 208.319641,224.233536 
	C198.788681,229.250793 189.630875,234.976868 180.098877,240.665726 
	C173.236771,244.779266 166.590714,248.629639 159.355011,252.758972 
	C152.104294,256.772522 145.419159,260.465118 138.791168,264.257568 
	C134.838898,266.519043 130.965164,266.685455 126.988380,264.387177 
	C103.100357,250.581696 79.221146,236.760803 55.297001,223.018158 
	C50.773476,220.419739 48.852261,216.763489 48.942360,211.553894 
	C49.100456,202.413162 48.892220,193.266098 48.837429,184.121689 
	C48.872543,176.689728 48.907658,169.257767 48.889473,161.352280 
	C48.891193,150.613525 49.073875,140.346710 48.947968,130.083710 
	C48.883972,124.867233 50.940708,121.320778 55.475838,118.796074 
	C63.717628,114.207863 71.831993,109.390762 80.313431,104.488022 
	C80.709984,118.106209 80.957596,131.907486 80.797363,145.704010 
	C80.729492,151.547760 82.977211,155.291702 88.037430,158.175629 
	C113.025925,172.417084 137.922974,186.820129 162.775620,201.297791 
	C167.597122,204.106522 171.910858,204.219238 176.781052,201.357620 
	C189.677902,193.779831 202.742523,186.487595 216.122131,179.019836 
z"/>
<path fill="#FFFFFE" opacity="1.000000" stroke="none" 
	d="
M48.526443,184.232513 
	C48.892220,193.266098 49.100456,202.413162 48.942360,211.553894 
	C48.852261,216.763489 50.773476,220.419739 55.297001,223.018158 
	C79.221146,236.760803 103.100357,250.581696 126.988380,264.387177 
	C130.965164,266.685455 134.838898,266.519043 138.791168,264.257568 
	C145.419159,260.465118 152.104294,256.772522 159.150085,252.993835 
	C159.557388,260.447327 159.788818,267.954224 159.456314,275.436066 
	C159.372818,277.315125 157.939728,279.895477 156.349030,280.831024 
	C135.546478,293.065704 114.633163,305.113953 93.633774,317.007965 
	C92.169060,317.837555 89.400734,317.791931 87.919952,316.952057 
	C66.929688,305.046417 46.022789,292.991669 25.225407,280.752594 
	C23.649431,279.825165 22.154432,277.238983 22.138985,275.411011 
	C21.934841,251.252075 22.057137,227.090530 21.929720,202.930527 
	C21.914913,200.122864 23.048018,198.810028 25.286356,197.557236 
	C32.983421,193.249146 40.580360,188.762161 48.526443,184.232513 
z"/>
<path fill="#FEFEFE" opacity="1.000000" stroke="none" 
	d="
M101.164673,92.155724 
	C101.110535,83.338013 100.920601,74.517097 101.128922,65.705597 
	C101.165901,64.141563 102.480690,61.970478 103.845009,61.170502 
	C124.926407,48.809319 146.088562,36.584526 167.336044,24.511187 
	C168.663635,23.756817 171.210648,23.884924 172.585464,24.666473 
	C193.686569,36.661888 214.722000,48.774883 235.640854,61.084610 
	C237.214905,62.010853 238.680374,64.625725 238.695999,66.468353 
	C238.899185,90.432915 238.900024,114.400391 238.693848,138.364914 
	C238.678116,140.195053 237.154526,142.693863 235.577179,143.707245 
	C229.719055,147.470886 223.545166,150.743057 217.069580,153.946762 
	C216.586868,146.197678 216.297150,138.694443 216.533920,131.207855 
	C216.723526,125.213036 214.497589,121.240028 209.206726,118.235390 
	C186.035309,105.076599 162.971222,91.727081 139.957703,78.293434 
	C134.936386,75.362343 130.444916,75.348793 125.463783,78.342033 
	C117.480049,83.139587 109.275749,87.570091 101.164673,92.155724 
z"/>
<path fill="#F5C159" opacity="1.000000" stroke="none" 
	d="
M101.110565,92.608429 
	C109.275749,87.570091 117.480049,83.139587 125.463783,78.342033 
	C130.444916,75.348793 134.936386,75.362343 139.957703,78.293434 
	C162.971222,91.727081 186.035309,105.076599 209.206726,118.235390 
	C214.497589,121.240028 216.723526,125.213036 216.533920,131.207855 
	C216.297150,138.694443 216.586868,146.197678 216.738358,154.133026 
	C202.029648,163.232758 187.269775,171.959808 172.370239,180.441498 
	C171.011993,181.214676 168.393280,181.055328 166.974686,180.248322 
	C145.985443,168.307877 125.057587,156.256668 104.270973,143.968185 
	C102.599129,142.979858 101.182533,140.075577 101.149101,138.037018 
	C100.903358,123.048576 101.040161,108.053864 101.110565,92.608429 
z"/>
</svg>